<svg xmlns="http://www.w3.org/2000/svg" xmlns:xlink="http://www.w3.org/1999/xlink" version="1.1" id="Layer_1" x="0px" y="0px" enable-background="new 0 0 568 348" xml:space="preserve" viewBox="116.27 50.37 337.43 266.31">
<path fill="#ED1C24" opacity="1.000000" stroke="none" d=" M265.998871,263.000000   C265.998871,280.799408 265.998871,298.098816 265.998871,315.697510   C249.679337,315.697510 233.747589,315.697510 217.245026,315.697510   C217.245026,269.438629 217.245026,223.054123 217.245026,176.103287   C183.297379,176.103287 149.911392,176.103287 116.265327,176.103287   C116.265327,133.938232 116.265327,92.340950 116.265327,50.371544   C228.633087,50.371544 341.013733,50.371544 453.697144,50.371544   C453.697144,66.319061 453.697144,82.250893 453.697144,98.752487   C357.772278,98.752487 261.723419,98.752487 165.337891,98.752487   C165.337891,108.364967 165.337891,117.414391 165.337891,126.860207   C198.724350,126.860207 231.990082,126.860207 265.998871,126.860207   C265.998871,172.332901 265.998871,217.416443 265.998871,263.000000  z"/>
<path fill="#BCBEC0" opacity="1.000000" stroke="none" d=" M450.999756,175.833313   C421.504822,175.888870 392.009857,175.944641 362.514923,175.999512   C360.539978,176.003189 358.565033,176.000000 356.296570,176.000000   C356.296570,182.670654 356.296570,189.066986 356.296570,195.933960   C374.732056,195.933960 393.133301,195.933960 411.763824,195.933960   C411.763824,212.341965 411.763824,228.287827 411.763824,244.700195   C393.504730,244.700195 375.103455,244.700195 356.239868,244.700195   C356.239868,268.890198 356.239868,292.623566 356.239868,316.676910   C339.715820,316.676910 323.652039,316.676910 307.018982,316.676910   C307.018982,254.453659 307.018982,192.190552 307.550690,129.463791   C355.721588,129.000076 403.360809,129.000031 451.000000,129.468658   C450.999939,145.235977 450.999847,160.534653 450.999756,175.833313  z"/>
</svg>